<?xml version="1.0" encoding="utf-8"?>
<!-- Generator: Adobe Illustrator 15.1.0, SVG Export Plug-In . SVG Version: 6.00 Build 0)  -->
<!DOCTYPE svg PUBLIC "-//W3C//DTD SVG 1.1//EN" "http://www.w3.org/Graphics/SVG/1.1/DTD/svg11.dtd">
<svg version="1.1" id="Capa_1" xmlns="http://www.w3.org/2000/svg" xmlns:xlink="http://www.w3.org/1999/xlink" x="0px" y="0px"
	 width="96.363px" height="96.38px" viewBox="182.844 -0.001 96.363 96.38" enable-background="new 182.844 -0.001 96.363 96.38"
	 xml:space="preserve">
<g>
	<path id="circle_1_" fill="#EBA79B" d="M208.927,83.358c0,7.206-5.84,13.021-13.059,13.021c-7.185,0-13.024-5.818-13.024-13.021
		c0-7.182,5.84-13.061,13.024-13.061C203.086,70.297,208.927,76.176,208.927,83.358z"/>
	<path fill="#EBA79B" d="M238.196,95.653c-4.738,0-8.471-6.686-11.058-14.315c-2.28-6.726-6.081-12.876-11.228-18.03
		c-5.133-5.147-11.247-8.953-17.917-11.238c-7.622-2.613-14.311-6.336-14.311-11.06c0-4.724,6.618-8.636,14.439-6.703
		c23.006,5.682,41.15,23.86,46.815,46.905C246.859,89.035,242.934,95.653,238.196,95.653z"/>
	<path fill="#EBA79B" d="M271.61,95.653c-4.727,0-8.495-6.584-10.029-14.493c-6.212-32.021-31.438-57.316-63.373-63.557
		c-7.906-1.543-14.49-5.305-14.49-10.024c0-4.722,6.567-8.607,14.522-7.335c41.374,6.621,74.131,39.438,80.727,80.882
		C280.231,89.083,276.339,95.653,271.61,95.653z"/>
</g>
</svg>
